<svg width="87" height="359" viewBox="0 0 87 359" fill="none" xmlns="http://www.w3.org/2000/svg">
<path d="M79.6211 -1.90735e-05L71.6211 241.5H12.6211L4.1211 -1.90735e-05H79.6211ZM43.6211 358.5C30.9544 358.5 20.4544 354.667 12.1211 347C4.1211 339 0.121097 329.167 0.121097 317.5C0.121097 305.833 4.1211 296.167 12.1211 288.5C20.4544 280.5 30.9544 276.5 43.6211 276.5C55.9544 276.5 66.1211 280.5 74.1211 288.5C82.1211 296.167 86.1211 305.833 86.1211 317.5C86.1211 329.167 82.1211 339 74.1211 347C66.1211 354.667 55.9544 358.5 43.6211 358.5Z" fill="#25A55F" fill-opacity="0.23"/>
</svg>
