<svg width="464" height="333" viewBox="0 0 464 333" fill="none" xmlns="http://www.w3.org/2000/svg">
<rect width="464" height="333" rx="20" fill="white"/>
<path d="M0 20C0 8.95431 8.95431 0 20 0H444C455.046 0 464 8.95431 464 20V92H0V20Z" fill="#0D6560"/>
<path d="M23.78 126.46L21.66 123.92C21.0733 124.067 20.4733 124.14 19.86 124.14C18.5533 124.14 17.3533 123.833 16.26 123.22C15.1667 122.607 14.3 121.76 13.66 120.68C13.02 119.587 12.7 118.353 12.7 116.98C12.7 115.62 13.02 114.4 13.66 113.32C14.3 112.227 15.1667 111.373 16.26 110.76C17.3533 110.147 18.5533 109.84 19.86 109.84C21.18 109.84 22.38 110.147 23.46 110.76C24.5533 111.373 25.4133 112.227 26.04 113.32C26.68 114.4 27 115.62 27 116.98C27 118.22 26.7333 119.353 26.2 120.38C25.68 121.393 24.9667 122.22 24.06 122.86L27.26 126.46H23.78ZM15.58 116.98C15.58 117.913 15.76 118.733 16.12 119.44C16.48 120.147 16.98 120.693 17.62 121.08C18.2733 121.453 19.02 121.64 19.86 121.64C20.7 121.64 21.44 121.453 22.08 121.08C22.72 120.693 23.22 120.147 23.58 119.44C23.94 118.733 24.12 117.913 24.12 116.98C24.12 116.047 23.94 115.233 23.58 114.54C23.22 113.833 22.72 113.293 22.08 112.92C21.44 112.547 20.7 112.36 19.86 112.36C19.02 112.36 18.2733 112.547 17.62 112.92C16.98 113.293 16.48 113.833 16.12 114.54C15.76 115.233 15.58 116.047 15.58 116.98ZM30.3622 124.14C29.8555 124.14 29.4355 123.987 29.1022 123.68C28.7822 123.36 28.6222 122.967 28.6222 122.5C28.6222 122.033 28.7822 121.647 29.1022 121.34C29.4355 121.02 29.8555 120.86 30.3622 120.86C30.8555 120.86 31.2622 121.02 31.5822 121.34C31.9022 121.647 32.0622 122.033 32.0622 122.5C32.0622 122.967 31.9022 123.36 31.5822 123.68C31.2622 123.987 30.8555 124.14 30.3622 124.14Z" fill="#25A55F"/>
<path d="M12.72 161V158.42H17.54V173H14.66V161H12.72ZM21.8661 173.14C21.3594 173.14 20.9394 172.987 20.6061 172.68C20.2861 172.36 20.1261 171.967 20.1261 171.5C20.1261 171.033 20.2861 170.647 20.6061 170.34C20.9394 170.02 21.3594 169.86 21.8661 169.86C22.3594 169.86 22.7661 170.02 23.0861 170.34C23.4061 170.647 23.5661 171.033 23.5661 171.5C23.5661 171.967 23.4061 172.36 23.0861 172.68C22.7661 172.987 22.3594 173.14 21.8661 173.14Z" fill="#DFDFDF"/>
<path d="M13.94 197.84C15.22 196.773 16.24 195.887 17 195.18C17.76 194.46 18.3933 193.713 18.9 192.94C19.4067 192.167 19.66 191.407 19.66 190.66C19.66 189.98 19.5 189.447 19.18 189.06C18.86 188.673 18.3667 188.48 17.7 188.48C17.0333 188.48 16.52 188.707 16.16 189.16C15.8 189.6 15.6133 190.207 15.6 190.98H12.88C12.9333 189.38 13.4067 188.167 14.3 187.34C15.2067 186.513 16.3533 186.1 17.74 186.1C19.26 186.1 20.4267 186.507 21.24 187.32C22.0533 188.12 22.46 189.18 22.46 190.5C22.46 191.54 22.18 192.533 21.62 193.48C21.06 194.427 20.42 195.253 19.7 195.96C18.98 196.653 18.04 197.493 16.88 198.48H22.78V200.8H12.9V198.72L13.94 197.84ZM26.1044 201.14C25.5977 201.14 25.1777 200.987 24.8444 200.68C24.5244 200.36 24.3644 199.967 24.3644 199.5C24.3644 199.033 24.5244 198.647 24.8444 198.34C25.1777 198.02 25.5977 197.86 26.1044 197.86C26.5977 197.86 27.0044 198.02 27.3244 198.34C27.6444 198.647 27.8044 199.033 27.8044 199.5C27.8044 199.967 27.6444 200.36 27.3244 200.68C27.0044 200.987 26.5977 201.14 26.1044 201.14Z" fill="#DFDFDF"/>
<path d="M13.1 218.26C13.1667 216.927 13.6333 215.9 14.5 215.18C15.38 214.447 16.5333 214.08 17.96 214.08C18.9333 214.08 19.7667 214.253 20.46 214.6C21.1533 214.933 21.6733 215.393 22.02 215.98C22.38 216.553 22.56 217.207 22.56 217.94C22.56 218.78 22.34 219.493 21.9 220.08C21.4733 220.653 20.96 221.04 20.36 221.24V221.32C21.1333 221.56 21.7333 221.987 22.16 222.6C22.6 223.213 22.82 224 22.82 224.96C22.82 225.76 22.6333 226.473 22.26 227.1C21.9 227.727 21.36 228.22 20.64 228.58C19.9333 228.927 19.08 229.1 18.08 229.1C16.5733 229.1 15.3467 228.72 14.4 227.96C13.4533 227.2 12.9533 226.08 12.9 224.6H15.62C15.6467 225.253 15.8667 225.78 16.28 226.18C16.7067 226.567 17.2867 226.76 18.02 226.76C18.7 226.76 19.22 226.573 19.58 226.2C19.9533 225.813 20.14 225.32 20.14 224.72C20.14 223.92 19.8867 223.347 19.38 223C18.8733 222.653 18.0867 222.48 17.02 222.48H16.44V220.18H17.02C18.9133 220.18 19.86 219.547 19.86 218.28C19.86 217.707 19.6867 217.26 19.34 216.94C19.0067 216.62 18.52 216.46 17.88 216.46C17.2533 216.46 16.7667 216.633 16.42 216.98C16.0867 217.313 15.8933 217.74 15.84 218.26H13.1ZM26.5927 229.14C26.086 229.14 25.666 228.987 25.3327 228.68C25.0127 228.36 24.8527 227.967 24.8527 227.5C24.8527 227.033 25.0127 226.647 25.3327 226.34C25.666 226.02 26.086 225.86 26.5927 225.86C27.086 225.86 27.4927 226.02 27.8127 226.34C28.1327 226.647 28.2927 227.033 28.2927 227.5C28.2927 227.967 28.1327 228.36 27.8127 228.68C27.4927 228.987 27.086 229.14 26.5927 229.14Z" fill="#DFDFDF"/>
<path d="M12.94 254.16V251.96L19.48 242.6H22.74V251.72H24.5V254.16H22.74V257H19.94V254.16H12.94ZM20.12 245.6L16.02 251.72H20.12V245.6ZM27.8427 257.14C27.336 257.14 26.916 256.987 26.5827 256.68C26.2627 256.36 26.1027 255.967 26.1027 255.5C26.1027 255.033 26.2627 254.647 26.5827 254.34C26.916 254.02 27.336 253.86 27.8427 253.86C28.336 253.86 28.7427 254.02 29.0627 254.34C29.3827 254.647 29.5427 255.033 29.5427 255.5C29.5427 255.967 29.3827 256.36 29.0627 256.68C28.7427 256.987 28.336 257.14 27.8427 257.14Z" fill="#DFDFDF"/>
<rect x="43" y="110" width="319" height="14" rx="7" fill="#25A55F"/>
<rect x="38" y="159" width="199" height="14" rx="7" fill="#DFDFDF"/>
<rect x="38" y="187" width="222" height="14" rx="7" fill="#DFDFDF"/>
<rect x="38" y="215" width="160" height="14" rx="7" fill="#DFDFDF"/>
<rect x="38" y="243" width="191" height="14" rx="7" fill="#DFDFDF"/>
<rect x="333" y="286" width="108" height="32" rx="10" fill="#DFDFDF"/>
<rect x="206" y="286" width="108" height="32" rx="10" fill="#DFDFDF"/>
<path d="M359.069 306.34H353.509L352.589 309H349.649L354.669 295.02H357.929L362.949 309H359.989L359.069 306.34ZM358.309 304.1L356.289 298.26L354.269 304.1H358.309ZM370.965 297.76C372.285 297.76 373.352 298.18 374.165 299.02C374.979 299.847 375.385 301.007 375.385 302.5V309H372.585V302.88C372.585 302 372.365 301.327 371.925 300.86C371.485 300.38 370.885 300.14 370.125 300.14C369.352 300.14 368.739 300.38 368.285 300.86C367.845 301.327 367.625 302 367.625 302.88V309H364.825V297.92H367.625V299.3C367.999 298.82 368.472 298.447 369.045 298.18C369.632 297.9 370.272 297.76 370.965 297.76ZM382.288 309.18C381.381 309.18 380.568 309.02 379.848 308.7C379.128 308.367 378.555 307.92 378.128 307.36C377.715 306.8 377.488 306.18 377.448 305.5H380.268C380.321 305.927 380.528 306.28 380.888 306.56C381.261 306.84 381.721 306.98 382.268 306.98C382.801 306.98 383.215 306.873 383.508 306.66C383.815 306.447 383.968 306.173 383.968 305.84C383.968 305.48 383.781 305.213 383.408 305.04C383.048 304.853 382.468 304.653 381.668 304.44C380.841 304.24 380.161 304.033 379.628 303.82C379.108 303.607 378.655 303.28 378.268 302.84C377.895 302.4 377.708 301.807 377.708 301.06C377.708 300.447 377.881 299.887 378.228 299.38C378.588 298.873 379.095 298.473 379.748 298.18C380.415 297.887 381.195 297.74 382.088 297.74C383.408 297.74 384.461 298.073 385.248 298.74C386.035 299.393 386.468 300.28 386.548 301.4H383.868C383.828 300.96 383.641 300.613 383.308 300.36C382.988 300.093 382.555 299.96 382.008 299.96C381.501 299.96 381.108 300.053 380.828 300.24C380.561 300.427 380.428 300.687 380.428 301.02C380.428 301.393 380.615 301.68 380.988 301.88C381.361 302.067 381.941 302.26 382.728 302.46C383.528 302.66 384.188 302.867 384.708 303.08C385.228 303.293 385.675 303.627 386.048 304.08C386.435 304.52 386.635 305.107 386.648 305.84C386.648 306.48 386.468 307.053 386.108 307.56C385.761 308.067 385.255 308.467 384.588 308.76C383.935 309.04 383.168 309.18 382.288 309.18ZM404.306 297.92L401.066 309H398.046L396.026 301.26L394.006 309H390.966L387.706 297.92H390.546L392.506 306.36L394.626 297.92H397.586L399.666 306.34L401.626 297.92H404.306ZM416.121 303.22C416.121 303.62 416.095 303.98 416.041 304.3H407.941C408.008 305.1 408.288 305.727 408.781 306.18C409.275 306.633 409.881 306.86 410.601 306.86C411.641 306.86 412.381 306.413 412.821 305.52H415.841C415.521 306.587 414.908 307.467 414.001 308.16C413.095 308.84 411.981 309.18 410.661 309.18C409.595 309.18 408.635 308.947 407.781 308.48C406.941 308 406.281 307.327 405.801 306.46C405.335 305.593 405.101 304.593 405.101 303.46C405.101 302.313 405.335 301.307 405.801 300.44C406.268 299.573 406.921 298.907 407.761 298.44C408.601 297.973 409.568 297.74 410.661 297.74C411.715 297.74 412.655 297.967 413.481 298.42C414.321 298.873 414.968 299.52 415.421 300.36C415.888 301.187 416.121 302.14 416.121 303.22ZM413.221 302.42C413.208 301.7 412.948 301.127 412.441 300.7C411.935 300.26 411.315 300.04 410.581 300.04C409.888 300.04 409.301 300.253 408.821 300.68C408.355 301.093 408.068 301.673 407.961 302.42H413.221ZM420.965 299.64C421.325 299.053 421.792 298.593 422.365 298.26C422.952 297.927 423.618 297.76 424.365 297.76V300.7H423.625C422.745 300.7 422.078 300.907 421.625 301.32C421.185 301.733 420.965 302.453 420.965 303.48V309H418.165V297.92H420.965V299.64Z" fill="#25A55F"/>
<path d="M244.706 309.14C243.733 309.14 242.853 308.973 242.066 308.64C241.293 308.307 240.679 307.827 240.226 307.2C239.773 306.573 239.539 305.833 239.526 304.98H242.526C242.566 305.553 242.766 306.007 243.126 306.34C243.499 306.673 244.006 306.84 244.646 306.84C245.299 306.84 245.813 306.687 246.186 306.38C246.559 306.06 246.746 305.647 246.746 305.14C246.746 304.727 246.619 304.387 246.366 304.12C246.113 303.853 245.793 303.647 245.406 303.5C245.033 303.34 244.513 303.167 243.846 302.98C242.939 302.713 242.199 302.453 241.626 302.2C241.066 301.933 240.579 301.54 240.166 301.02C239.766 300.487 239.566 299.78 239.566 298.9C239.566 298.073 239.773 297.353 240.186 296.74C240.599 296.127 241.179 295.66 241.926 295.34C242.673 295.007 243.526 294.84 244.486 294.84C245.926 294.84 247.093 295.193 247.986 295.9C248.893 296.593 249.393 297.567 249.486 298.82H246.406C246.379 298.34 246.173 297.947 245.786 297.64C245.413 297.32 244.913 297.16 244.286 297.16C243.739 297.16 243.299 297.3 242.966 297.58C242.646 297.86 242.486 298.267 242.486 298.8C242.486 299.173 242.606 299.487 242.846 299.74C243.099 299.98 243.406 300.18 243.766 300.34C244.139 300.487 244.659 300.66 245.326 300.86C246.233 301.127 246.973 301.393 247.546 301.66C248.119 301.927 248.613 302.327 249.026 302.86C249.439 303.393 249.646 304.093 249.646 304.96C249.646 305.707 249.453 306.4 249.066 307.04C248.679 307.68 248.113 308.193 247.366 308.58C246.619 308.953 245.733 309.14 244.706 309.14ZM258.633 309L254.873 304.28V309H252.073V294.2H254.873V302.62L258.593 297.92H262.233L257.353 303.48L262.273 309H258.633ZM265.173 296.6C264.68 296.6 264.266 296.447 263.933 296.14C263.613 295.82 263.453 295.427 263.453 294.96C263.453 294.493 263.613 294.107 263.933 293.8C264.266 293.48 264.68 293.32 265.173 293.32C265.666 293.32 266.073 293.48 266.393 293.8C266.726 294.107 266.893 294.493 266.893 294.96C266.893 295.427 266.726 295.82 266.393 296.14C266.073 296.447 265.666 296.6 265.173 296.6ZM266.553 297.92V309H263.753V297.92H266.553ZM272.119 299.52C272.479 299.013 272.973 298.593 273.599 298.26C274.239 297.913 274.966 297.74 275.779 297.74C276.726 297.74 277.579 297.973 278.339 298.44C279.113 298.907 279.719 299.573 280.159 300.44C280.613 301.293 280.839 302.287 280.839 303.42C280.839 304.553 280.613 305.56 280.159 306.44C279.719 307.307 279.113 307.98 278.339 308.46C277.579 308.94 276.726 309.18 275.779 309.18C274.966 309.18 274.246 309.013 273.619 308.68C273.006 308.347 272.506 307.927 272.119 307.42V314.28H269.319V297.92H272.119V299.52ZM277.979 303.42C277.979 302.753 277.839 302.18 277.559 301.7C277.293 301.207 276.933 300.833 276.479 300.58C276.039 300.327 275.559 300.2 275.039 300.2C274.533 300.2 274.053 300.333 273.599 300.6C273.159 300.853 272.799 301.227 272.519 301.72C272.253 302.213 272.119 302.793 272.119 303.46C272.119 304.127 272.253 304.707 272.519 305.2C272.799 305.693 273.159 306.073 273.599 306.34C274.053 306.593 274.533 306.72 275.039 306.72C275.559 306.72 276.039 306.587 276.479 306.32C276.933 306.053 277.293 305.673 277.559 305.18C277.839 304.687 277.979 304.1 277.979 303.42Z" fill="#0D6560"/>
</svg>
