<svg width="158" height="45" viewBox="0 0 158 45" fill="none" xmlns="http://www.w3.org/2000/svg">
<path d="M22.0164 37.3677C23.4927 37.3677 26.2528 36.7807 26.1886 36.7807L32.0939 42.2587C29.077 43.8239 25.6751 44.7368 22.0164 44.7368C9.82072 44.7368 0 34.6939 0 22.3684C0 9.97775 9.82072 0 22.0164 0C34.2121 0 44.0328 9.97775 44.0328 22.3684C44.0328 28.5638 41.5295 34.1722 37.4856 38.2154L32.2222 33.2592C35.0465 30.5202 36.7796 26.6726 36.7796 22.3684C36.7796 14.0862 30.2324 7.30397 22.0164 7.30397C13.8004 7.30397 7.25321 14.0862 7.25321 22.3684C7.25321 30.6506 13.8004 37.3677 22.0164 37.3677ZM32.0939 42.2587C34.0837 41.1501 35.9451 39.7806 37.4856 38.2154L44.0328 44.2151H34.2121L32.0939 42.2587Z" fill="#25A55F"/>
<path d="M79.7552 22.742C79.7552 26.1399 78.5707 29.0776 76.6547 31.2721L79.4765 35.1301H72.8922L72.3697 34.3868C70.7323 35.0947 68.9556 35.484 67.0744 35.484C60.1766 35.484 54.3936 30.281 54.3936 22.742C54.3936 15.203 60.1766 10 67.0744 10C73.9722 10 79.7552 15.203 79.7552 22.742ZM67.0744 30.1395C67.7711 30.1395 68.433 30.0333 69.0601 29.8563L64.6009 23.7684H71.1852L73.1013 26.423C73.6587 25.3612 73.9374 24.087 73.9374 22.742C73.9374 18.4593 71.011 15.3446 67.0744 15.3446C63.1378 15.3446 60.2462 18.4593 60.2462 22.742C60.2462 27.0247 63.1378 30.1395 67.0744 30.1395ZM89.4052 35.4132C86.026 35.4132 82.577 33.1126 82.577 27.2725V16.725H88.0814V26.8832C88.0814 29.6793 89.022 30.5642 90.7638 30.5642C93.2373 30.5642 94.6656 28.122 95.014 27.0601V16.725H100.518V35.1301H95.014V31.9446C94.6656 32.8294 92.8193 35.4132 89.4052 35.4132ZM109.576 10.1062V14.8136H104.072V10.1062H109.576ZM109.576 16.725V35.1301H104.072V16.725H109.576ZM129.712 16.725L121.003 30.2456H129.12V35.1301H112.224L120.933 21.6094H113.025V16.725H129.712ZM137.864 10.1062V14.8136H132.36V10.1062H137.864ZM137.864 16.725V35.1301H132.36V16.725H137.864ZM158 16.725L149.291 30.2456H157.408V35.1301H140.512L149.221 21.6094H141.313V16.725H158Z" fill="#25A55F"/>
</svg>
