<svg width="158" height="45" viewBox="0 0 158 45" fill="none" xmlns="http://www.w3.org/2000/svg">
<path d="M22.0164 37.3677C23.4927 37.3677 26.2528 36.7807 26.1886 36.7807L32.0939 42.2587C29.077 43.8239 25.6751 44.7368 22.0164 44.7368C9.82072 44.7368 0 34.6939 0 22.3684C0 9.97775 9.82072 0 22.0164 0C34.2121 0 44.0328 9.97775 44.0328 22.3684C44.0328 28.5638 41.5295 34.1722 37.4856 38.2154L32.2222 33.2592C35.0465 30.5202 36.7796 26.6726 36.7796 22.3684C36.7796 14.0862 30.2324 7.30397 22.0164 7.30397C13.8004 7.30397 7.25321 14.0862 7.25321 22.3684C7.25321 30.6506 13.8004 37.3677 22.0164 37.3677V37.3677ZM32.0939 42.2587C34.0837 41.1501 35.9451 39.7806 37.4856 38.2154L44.0328 44.2151H34.2121L32.0939 42.2587Z" fill="white"/>
<path d="M79.7551 22.742C79.7551 26.1399 78.5706 29.0776 76.6546 31.2721L79.4764 35.1301H72.8921L72.3696 34.3868C70.7322 35.0947 68.9555 35.484 67.0743 35.484C60.1764 35.484 54.3934 30.281 54.3934 22.742C54.3934 15.203 60.1764 10 67.0743 10C73.9721 10 79.7551 15.203 79.7551 22.742ZM67.0743 30.1395C67.771 30.1395 68.4329 30.0333 69.06 29.8563L64.6008 23.7684H71.1851L73.1011 26.423C73.6585 25.3612 73.9372 24.087 73.9372 22.742C73.9372 18.4593 71.0109 15.3446 67.0743 15.3446C63.1376 15.3446 60.2461 18.4593 60.2461 22.742C60.2461 27.0247 63.1376 30.1395 67.0743 30.1395ZM89.4051 35.4132C86.0258 35.4132 82.5769 33.1126 82.5769 27.2725V16.725H88.0812V26.8832C88.0812 29.6793 89.0219 30.5642 90.7637 30.5642C93.2372 30.5642 94.6655 28.122 95.0139 27.0601V16.725H100.518V35.1301H95.0139V31.9446C94.6655 32.8294 92.8191 35.4132 89.4051 35.4132ZM109.576 10.1062V14.8136H104.072V10.1062H109.576ZM109.576 16.725V35.1301H104.072V16.725H109.576ZM129.712 16.725L121.003 30.2456H129.12V35.1301H112.224L120.933 21.6094H113.025V16.725H129.712V16.725ZM137.864 10.1062V14.8136H132.36V10.1062H137.864V10.1062ZM137.864 16.725V35.1301H132.36V16.725H137.864V16.725ZM158 16.725L149.291 30.2456H157.408V35.1301H140.512L149.221 21.6094H141.313V16.725H158Z" fill="white"/>
</svg>
