<svg width="45" height="45" viewBox="0 0 45 45" fill="none" xmlns="http://www.w3.org/2000/svg">
<path d="M22.0164 37.3677C23.4927 37.3677 26.2528 36.7807 26.1886 36.7807L32.0939 42.2587C29.077 43.8239 25.6751 44.7368 22.0164 44.7368C9.82072 44.7368 0 34.6939 0 22.3684C0 9.97775 9.82072 0 22.0164 0C34.2121 0 44.0328 9.97775 44.0328 22.3684C44.0328 28.5638 41.5295 34.1722 37.4856 38.2154L32.2222 33.2592C35.0465 30.5202 36.7796 26.6726 36.7796 22.3684C36.7796 14.0862 30.2324 7.30397 22.0164 7.30397C13.8004 7.30397 7.25321 14.0862 7.25321 22.3684C7.25321 30.6506 13.8004 37.3677 22.0164 37.3677V37.3677ZM32.0939 42.2587C34.0837 41.1501 35.9451 39.7806 37.4856 38.2154L44.0328 44.2151H34.2121L32.0939 42.2587Z" fill="#25A55F"/>
</svg>
